<?xml version="1.0" encoding="UTF-8" standalone="no"?>
<!-- Created with Inkscape (http://www.inkscape.org/) -->
<svg
   xmlns:svg="http://www.w3.org/2000/svg"
   xmlns="http://www.w3.org/2000/svg"
   version="1.0"
   width="602.36218"
   height="161.0433"
   id="svg2941">
  <defs
     id="defs2943" />
  <g
     transform="translate(-197.37728,-421.16329)"
     id="layer1">
    <g
       transform="translate(17.716521,17.711772)"
       id="g2965">
      <path
         d="M 489.16511,430.39995 L 489.16511,478.88902 L 497.70192,478.88902 L 497.70192,462.58371 C 497.70189,458.31695 499.01795,451.48586 505.21431,451.48586 C 510.70529,451.48584 510.76323,457.05918 510.76323,461.13246 L 510.76323,478.88902 L 519.38541,478.88902 L 519.38541,457.88847 C 519.38538,450.38359 515.99295,444.82715 508.20219,444.82715 C 503.72727,444.82707 499.96003,446.88683 497.78729,450.11998 L 497.70192,450.11998 L 497.70192,430.39995 L 489.16511,430.39995 z M 405.41903,432.02194 L 405.41903,439.53433 L 412.84605,439.53433 L 412.84605,432.02194 L 405.41903,432.02194 z M 418.56571,432.02194 L 418.56571,439.53433 L 425.99274,439.53433 L 425.99274,432.02194 L 418.56571,432.02194 z M 365.72287,433.72931 L 365.72287,440.81486 L 385.86974,440.81486 L 364.95456,471.54736 L 364.95456,478.88902 L 395.85781,478.88902 L 395.85781,471.80347 L 374.25968,471.80347 L 395.3456,441.07096 L 395.3456,433.72931 L 365.72287,433.72931 z M 454.93251,444.82715 C 449.82133,444.82707 446.26575,450.00453 445.8835,453.10786 L 445.79813,453.10786 L 445.79813,445.59547 L 438.20037,445.59547 L 438.20037,478.88902 L 446.73718,478.88902 L 446.73718,466.68138 C 446.73718,461.89902 446.68743,453.10786 453.65199,453.10786 C 455.18477,453.10786 456.72655,453.33766 457.49356,453.7908 L 457.49356,445.08326 C 456.60076,444.82358 455.75994,444.82715 454.93251,444.82715 z M 475.50622,444.82715 C 465.22337,444.82707 459.62776,452.43573 459.62776,462.07151 C 459.62776,472.22534 465.05061,479.65733 475.84769,479.65733 C 479.35958,479.65725 481.89235,479.324 484.3845,478.54754 L 484.04303,471.37663 C 482.57311,472.0257 479.89646,472.91325 477.46968,472.91325 C 471.4645,472.9132 468.5914,468.21574 468.5914,462.07151 C 468.59138,455.79746 471.99905,451.48586 477.29895,451.48586 C 479.91933,451.48584 481.57123,452.05484 483.10398,452.76639 L 483.87229,445.93694 C 481.51083,445.22673 478.95523,444.82715 475.50622,444.82715 z M 540.04448,444.82715 C 529.8208,444.82707 524.7636,452.7772 524.7636,462.41298 C 524.76363,473.34203 531.0651,479.65733 541.92258,479.65733 C 546.52451,479.65725 550.14075,478.75732 553.27654,477.01092 L 553.27654,469.92537 C 550.08035,471.73411 546.50375,473.34009 542.34942,473.34009 C 537.04832,473.34004 533.34245,470.25643 532.95893,464.88865 L 555.66684,464.88865 C 555.66684,453.25048 552.24485,444.82715 540.04448,444.82715 z M 578.37475,444.82715 C 573.26228,444.82707 569.71048,450.00453 569.32573,453.10786 L 569.24037,453.10786 L 569.24037,445.59547 L 561.55724,445.59547 L 561.55724,478.88902 L 570.17941,478.88902 L 570.17941,466.68138 C 570.17941,461.89902 570.13213,453.10786 577.09423,453.10786 C 578.62823,453.10786 580.17005,453.33766 580.93579,453.7908 L 580.93579,445.08326 C 580.04053,444.82358 579.20589,444.82715 578.37475,444.82715 z M 400.55305,445.59547 L 400.55305,466.59601 C 400.55302,474.09715 403.94179,479.65733 411.73627,479.65733 C 416.20751,479.65725 419.87107,477.59765 422.49264,474.36451 L 422.66338,474.36451 L 422.66338,478.88902 L 430.77335,478.88902 L 430.77335,445.59547 L 422.23654,445.59547 L 422.23654,461.90077 C 422.23657,466.16762 420.83637,472.91325 414.63878,472.91325 C 409.14651,472.9132 409.08986,467.42656 409.08986,463.35203 L 409.08986,445.59547 L 400.55305,445.59547 z M 540.55669,451.14439 C 545.34976,451.14445 547.21376,454.79517 547.47151,458.99826 L 532.95893,458.99826 C 533.34242,454.53546 535.76608,451.14439 540.55669,451.14439 z M 609.19262,485.71846 L 609.19262,534.20753 L 617.72943,534.20753 L 617.72943,485.71846 L 609.19262,485.71846 z M 626.0955,485.71846 L 626.0955,534.20753 L 634.37621,534.20753 L 634.37621,530.19523 L 634.54694,530.19523 C 637.03658,533.7517 640.97902,535.06121 644.62038,535.06121 C 654.71708,535.06121 658.36464,526.59562 658.36464,517.47539 C 658.36469,508.29404 654.71706,500.14567 644.62038,500.14567 C 640.15039,500.14567 637.16568,502.01541 634.80305,505.18238 L 634.63231,505.18238 L 634.63231,485.71846 L 626.0955,485.71846 z M 733.74465,485.71846 L 733.74465,534.20753 L 742.28145,534.20753 L 742.28145,518.07296 L 742.45219,518.07296 L 753.3793,534.20753 L 764.30642,534.20753 L 750.47679,515.85339 L 762.76979,500.91398 L 752.61099,500.91398 L 742.45219,514.2314 L 742.28145,514.2314 L 742.28145,485.71846 L 733.74465,485.71846 z M 364.95456,489.13319 L 364.95456,534.20753 L 373.83284,534.20753 L 373.83284,513.29235 L 374.00358,513.29235 L 390.05278,534.20753 L 401.7482,534.20753 L 382.62575,510.38984 L 400.97989,489.13319 L 389.96741,489.13319 L 373.83284,508.51174 L 373.83284,489.13319 L 364.95456,489.13319 z M 487.20165,491.52349 L 478.66484,494.25527 L 478.66484,500.91398 L 472.3476,500.91398 L 472.3476,507.31659 L 478.66484,507.31659 L 478.66484,524.21946 C 478.66484,530.81559 482.37656,535.06121 489.07974,535.06121 C 491.63718,535.06121 493.60777,534.7231 495.39698,534.20753 L 495.14088,527.37808 C 494.24931,527.95733 492.74795,528.31713 491.21394,528.31713 C 487.95488,528.31716 487.20165,525.61439 487.20165,522.76821 L 487.20165,507.31659 L 494.7994,507.31659 L 494.7994,500.91398 L 487.20165,500.91398 L 487.20165,491.52349 z M 417.45593,500.14567 C 413.81583,500.14567 409.33981,501.15506 406.01661,502.70671 L 406.27271,510.13373 C 409.14706,507.93539 412.78893,506.46291 416.43151,506.46291 C 421.47864,506.46288 423.77317,508.35267 423.77317,513.71919 L 419.07792,513.71919 C 415.50068,513.71925 411.32579,513.9807 408.06544,515.59729 C 404.80635,517.21262 402.43115,520.17772 402.43115,525.15851 C 402.43117,531.4949 408.05637,535.06121 413.87047,535.06121 C 417.76708,535.06121 422.04641,532.94496 424.02927,529.25618 L 424.20001,529.25618 C 424.26535,530.29603 424.22334,532.45987 424.54148,534.20753 L 432.13924,534.20753 C 431.94809,531.62103 431.77648,529.30462 431.7124,526.78051 C 431.64825,524.32505 431.62703,521.86653 431.62703,518.4998 L 431.62703,514.2314 C 431.62703,504.40336 427.48478,500.14567 417.45593,500.14567 z M 458.09113,500.14567 C 453.61864,500.14567 450.01925,501.62236 447.33475,505.43849 L 447.16402,505.43849 L 447.16402,500.91398 L 439.05405,500.91398 L 439.05405,534.20753 L 447.59086,534.20753 L 447.59086,517.9876 C 447.59089,513.71591 448.991,506.88975 455.18862,506.88975 C 460.68452,506.88969 460.73754,512.37644 460.73754,516.45097 L 460.73754,534.20753 L 469.27435,534.20753 L 469.27435,513.20698 C 469.27432,505.7071 465.88312,500.14567 458.09113,500.14567 z M 515.03164,500.14567 C 505.31844,500.14567 497.78729,506.82041 497.78729,517.81686 C 497.78729,527.38644 504.16673,535.06121 515.03164,535.06121 C 525.95323,535.06121 532.27599,527.3865 532.27599,517.81686 C 532.27596,506.82039 524.80526,500.14567 515.03164,500.14567 z M 556.34979,500.14567 C 551.87726,500.14567 548.2779,501.62236 545.59341,505.43849 L 545.42267,505.43849 L 545.42267,500.91398 L 537.31271,500.91398 L 537.31271,534.20753 L 545.93488,534.20753 L 545.93488,517.9876 C 545.93485,513.71591 547.24969,506.88975 553.44727,506.88975 C 558.94074,506.88969 558.9962,512.37644 558.9962,516.45097 L 558.9962,534.20753 L 567.533,534.20753 L 567.533,513.20698 C 567.533,505.7071 564.143,500.14567 556.34979,500.14567 z M 586.99692,500.14567 C 583.35809,500.14567 578.88081,501.15506 575.5576,502.70671 L 575.81371,510.13373 C 578.68929,507.93539 582.33116,506.46291 585.97251,506.46291 C 591.01838,506.46288 593.39953,508.35267 593.39953,513.71919 L 588.70429,513.71919 C 585.12705,513.71925 580.8643,513.9807 577.60644,515.59729 C 574.35226,517.21262 572.05751,520.17772 572.05751,525.15851 C 572.05748,531.4949 577.68399,535.06121 583.49683,535.06121 C 587.39464,535.06121 591.67772,532.94496 593.65563,529.25618 L 593.82637,529.25618 C 593.89177,530.29603 593.8497,532.45987 594.16784,534.20753 L 601.7656,534.20753 C 601.57069,531.62103 601.40039,529.30462 601.33876,526.78051 C 601.27344,524.32505 601.25339,521.86653 601.25339,518.4998 L 601.25339,514.2314 C 601.25339,504.40336 597.02826,500.14567 586.99692,500.14567 z M 676.3773,500.14567 C 672.73595,500.14567 668.26242,501.15506 664.93798,502.70671 L 665.19408,510.13373 C 668.06963,507.93539 671.71276,506.46291 675.35288,506.46291 C 680.39993,506.46288 682.77991,508.35267 682.77991,513.71919 L 678.08466,513.71919 C 674.50868,513.71925 670.24347,513.9807 666.98681,515.59729 C 663.72895,517.21262 661.35252,520.17772 661.35252,525.15851 C 661.35246,531.4949 667.06062,535.06121 672.87721,535.06121 C 676.77141,535.06121 681.05935,532.94496 683.03601,529.25618 L 683.20675,529.25618 C 683.2696,530.29603 683.22639,532.45987 683.54822,534.20753 L 691.06061,534.20753 C 690.86706,531.62103 690.78448,529.30462 690.71914,526.78051 C 690.65631,524.32505 690.5484,521.86653 690.5484,518.4998 L 690.5484,514.2314 C 690.54848,504.40336 686.40741,500.14567 676.3773,500.14567 z M 715.81735,500.14567 C 711.3424,500.14567 707.65881,501.62236 704.9756,505.43849 L 704.89024,505.43849 L 704.89024,500.91398 L 696.78027,500.91398 L 696.78027,534.20753 L 705.31708,534.20753 L 705.31708,517.9876 C 705.31705,513.71591 706.63803,506.88975 712.82947,506.88975 C 718.32534,506.88969 718.37839,512.37644 718.37839,516.45097 L 718.37839,534.20753 L 727.00057,534.20753 L 727.00057,513.20698 C 727.00054,505.7071 723.61548,500.14567 715.81735,500.14567 z M 515.03164,506.88975 C 520.65211,506.88969 523.31234,511.68557 523.31234,516.79244 C 523.31237,522.35748 521.60905,528.31713 515.03164,528.31713 C 508.51465,528.31716 506.75093,522.29129 506.75093,516.79244 C 506.75093,511.81667 509.47034,506.88975 515.03164,506.88975 z M 642.40081,506.88975 C 647.96208,506.88969 649.48636,513.01139 649.48636,517.47539 C 649.48638,522.07051 647.85548,528.31713 642.23007,528.31713 C 636.55037,528.31716 634.71768,522.19904 634.71768,517.47539 C 634.71765,512.82169 636.91225,506.88975 642.40081,506.88975 z M 420.10234,518.84128 L 423.77317,518.84128 C 423.77314,521.42778 423.47155,523.79325 422.0658,525.67072 C 420.7254,527.48211 418.62625,528.6586 416.00467,528.6586 C 412.93921,528.65863 410.62648,527.48998 410.62648,524.64631 C 410.62651,519.53444 416.26982,518.84128 420.10234,518.84128 z M 589.7287,518.84128 L 593.39953,518.84128 C 593.3995,521.42778 593.01255,523.79325 591.6068,525.67072 C 590.26757,527.48211 588.25138,528.6586 585.63104,528.6586 C 582.56552,528.65863 580.16748,527.48998 580.16748,524.64631 C 580.16742,519.53444 585.89252,518.84128 589.7287,518.84128 z M 679.10908,518.84128 L 682.77991,518.84128 C 682.77988,521.42778 682.39169,523.79325 680.98718,525.67072 C 679.64552,527.48211 677.6293,528.6586 675.01141,528.6586 C 671.94584,528.65863 669.54785,527.48998 669.54785,524.64631 C 669.54785,519.53444 675.27779,518.84128 679.10908,518.84128 z"
         id="path2636"
         style="fill:#000000;fill-opacity:1;fill-rule:nonzero;stroke:none" />
      <path
         d="M 197.37728,546.78305 L 321.4647,546.78305 L 321.4647,421.16329 L 197.37728,421.16329 L 197.37728,546.78305 z"
         id="path2712"
         style="fill:#018bcd;fill-opacity:1;fill-rule:nonzero;stroke:none" />
      <path
         d="M 315.25972,427.44485 L 203.58227,427.44485 L 203.58227,540.50024 L 315.25972,540.50024 L 315.25972,427.44485 z"
         id="path2716"
         style="fill:#ffffff;fill-opacity:1;fill-rule:nonzero;stroke:none" />
      <path
         d="M 309.05596,433.72515 L 253.216,433.72515 L 222.815,483.97256 L 253.216,534.22119 L 309.05596,534.22119 L 278.65375,483.97256 L 309.05596,433.72515 z"
         id="path2720"
         style="fill:#018bcd;fill-opacity:1;fill-rule:nonzero;stroke:none" />
    </g>
  </g>
</svg>
